<svg width="98" height="98" viewBox="0 0 98 98" fill="none" xmlns="http://www.w3.org/2000/svg">
    <rect width="98" height="98" fill="#FDFAF6" />
    <path
        d="M74.9838 70.1447C73.6756 70.1447 72.6796 69.7879 71.9958 69.0744C71.3417 68.3608 71.0146 67.4243 71.0146 66.2647C71.0146 64.9268 71.3863 63.8565 72.1296 63.0537C72.9026 62.251 73.9729 61.8496 75.3406 61.8496C76.6488 61.8496 77.6299 62.1767 78.284 62.8307C78.9678 63.4551 79.3097 64.3916 79.3097 65.6404C79.3097 67.008 78.9232 68.1081 78.1502 68.9406C77.3772 69.7433 76.3217 70.1447 74.9838 70.1447Z"
        fill="#171717" />
    <path
        d="M66.592 63.6332C66.9191 63.3358 67.2461 63.1872 67.5732 63.1872C67.9299 63.1872 68.2124 63.3953 68.4205 63.8116C68.6584 64.1981 68.7773 64.6738 68.7773 65.2387C68.7773 66.4874 68.3313 67.4834 67.4394 68.2267C65.8933 69.5051 64.1392 70.1444 62.1769 70.1444C59.3524 70.1444 57.2861 68.97 55.9779 66.6212C54.6697 64.2427 54.0156 61.1506 54.0156 57.345C54.0156 53.7177 54.4765 49.585 55.3981 44.9469C56.3495 40.3088 57.7321 36.3248 59.5457 32.9949C61.389 29.665 63.5743 28 66.1015 28C67.5286 28 68.6435 28.669 69.4463 30.0069C70.2787 31.3151 70.695 33.203 70.695 35.6707C70.695 39.2088 69.7138 43.3117 67.7516 47.9795C65.819 52.6474 63.1729 57.2558 59.8133 61.8047C60.0214 63.0237 60.393 63.9007 60.9282 64.4359C61.4634 64.9711 62.1918 65.2387 63.1135 65.2387C63.6189 65.2387 64.1838 65.09 64.8081 64.7927C65.4622 64.4954 66.0569 64.1089 66.592 63.6332ZM65.1203 32.4151C64.4365 32.4151 63.6635 33.649 62.8013 36.1167C61.9391 38.5844 61.1809 41.6467 60.5268 45.3037C59.8727 48.9607 59.5159 52.469 59.4565 55.8287C61.5674 52.3501 63.2472 48.8715 64.496 45.3929C65.7447 41.8846 66.369 38.6885 66.369 35.8045C66.369 33.5449 65.9528 32.4151 65.1203 32.4151Z"
        fill="#171717" />
    <path
        d="M29.8817 70.1439C27.8302 70.1439 25.972 69.6385 24.3071 68.6276C22.6718 67.6168 21.3785 66.1599 20.4271 64.2571C19.4757 62.3246 19 60.0501 19 57.4337C19 52.9146 19.9663 48.7373 21.8988 44.9019C23.8314 41.0368 26.6856 37.9448 30.4615 35.6257C34.2374 33.2769 38.7714 32.1025 44.0636 32.1025C45.4313 32.1025 46.8881 32.2066 48.4341 32.4147C50.0099 32.6228 51.437 32.935 52.7155 33.3513C53.548 33.5891 53.9642 34.1837 53.9642 35.1351C53.9642 35.9082 53.6669 36.6366 53.0723 37.3204C52.5074 38.0042 51.8384 38.3461 51.0654 38.3461C50.8275 38.3461 50.6491 38.3313 50.5302 38.3015C48.9842 37.9448 47.6611 37.6921 46.5611 37.5434C45.461 37.365 44.3015 37.2758 43.0825 37.2758C39.3066 37.2758 36.0956 38.1975 33.4495 40.0408C30.8034 41.8545 28.8262 44.2627 27.5181 47.2656C26.2099 50.2685 25.5558 53.5092 25.5558 56.9878C25.5558 59.5149 26.0464 61.4772 27.0275 62.8746C28.0384 64.2423 29.3465 64.9261 30.952 64.9261C32.7657 64.9261 34.3563 64.1828 35.7239 62.6962C37.0916 61.2096 38.3403 58.8014 39.4701 55.4715C40.5999 52.1415 41.7148 47.6224 42.8149 41.9139C42.9933 41.0814 43.3501 40.5165 43.8852 40.2192C44.4204 39.9219 45.134 39.7733 46.0259 39.7733C48.1368 39.7733 49.1923 40.4571 49.1923 41.8247C49.1923 42.0626 49.1477 42.3599 49.0585 42.7167C48.2855 45.6006 47.5719 48.7968 46.9178 52.3051C46.2935 55.7836 45.9813 58.4297 45.9813 60.2434C45.9813 61.8489 46.2192 63.0233 46.6949 63.7665C47.1706 64.4801 47.899 64.8369 48.8801 64.8369C49.8315 64.8369 50.7383 64.5247 51.6006 63.9003C52.4628 63.2462 53.548 62.1462 54.8561 60.6001C55.2129 60.1839 55.6143 59.9758 56.0603 59.9758C56.4468 59.9758 56.7441 60.1542 56.9522 60.5109C57.1901 60.8677 57.309 61.3583 57.309 61.9827C57.309 63.1422 57.0265 64.0639 56.4616 64.7477C55.0048 66.5018 53.5777 67.8398 52.1803 68.7614C50.7829 69.6831 49.0734 70.1439 47.0516 70.1439C44.9704 70.1439 43.2906 69.5493 42.0122 68.3601C40.7337 67.1411 39.931 65.4315 39.6039 63.2314C37.4038 67.8398 34.163 70.1439 29.8817 70.1439Z"
        fill="#171717" />
</svg>